<svg width="78" height="78" viewBox="0 0 78 78" fill="none" xmlns="http://www.w3.org/2000/svg">
<g filter="url(#filter0_d_160_81)">
<path d="M54 44H50.84L49.72 42.92C53.64 38.36 56 32.44 56 26C56 11.64 44.36 0 30 0C15.64 0 4 11.64 4 26C4 40.36 15.64 52 30 52C36.44 52 42.36 49.64 46.92 45.72L48 46.84V50L68 69.96L73.96 64L54 44ZM30 44C20.04 44 12 35.96 12 26C12 16.04 20.04 8 30 8C39.96 8 48 16.04 48 26C48 35.96 39.96 44 30 44Z" fill="black"/>
</g>
<defs>
<filter id="filter0_d_160_81" x="0" y="0" width="77.96" height="77.96" filterUnits="userSpaceOnUse" color-interpolation-filters="sRGB">
<feFlood flood-opacity="0" result="BackgroundImageFix"/>
<feColorMatrix in="SourceAlpha" type="matrix" values="0 0 0 0 0 0 0 0 0 0 0 0 0 0 0 0 0 0 127 0" result="hardAlpha"/>
<feOffset dy="4"/>
<feGaussianBlur stdDeviation="2"/>
<feComposite in2="hardAlpha" operator="out"/>
<feColorMatrix type="matrix" values="0 0 0 0 0 0 0 0 0 0 0 0 0 0 0 0 0 0 0.25 0"/>
<feBlend mode="normal" in2="BackgroundImageFix" result="effect1_dropShadow_160_81"/>
<feBlend mode="normal" in="SourceGraphic" in2="effect1_dropShadow_160_81" result="shape"/>
</filter>
</defs>
</svg>
