<svg width="1689" height="1179" viewBox="0 0 1689 1179" fill="none" xmlns="http://www.w3.org/2000/svg">
<path d="M1180.47 139.36C1182.65 102.32 1184.87 65.28 1187.11 28.24C1187.39 23.76 1188.07 18.6 1191.91 16.24C1193.78 15.502 1195.79 15.1909 1197.8 15.3293C1199.8 15.4677 1201.75 16.0522 1203.51 17.04C1269.19 43.48 1317.39 116.76 1323.15 187.28" fill="#FF725E"/>
<g opacity="0.3">
<path d="M1202.79 54.6399C1218.17 64.7211 1231.02 78.2248 1240.31 94.0948C1249.61 109.965 1255.11 127.771 1256.39 146.12C1257.12 150.553 1256.18 155.1 1253.75 158.88C1252.5 160.236 1250.99 161.316 1249.3 162.053C1247.61 162.79 1245.79 163.167 1243.95 163.16C1240.26 163.12 1236.6 162.554 1233.07 161.48C1224.23 159.2 1214.91 156.72 1208.35 150.32C1202.35 143.964 1198.92 135.615 1198.71 126.88C1198.55 118.218 1199.43 109.569 1201.35 101.12L1212.55 120.24L1200.55 58.3199C1200.36 57.7761 1200.29 57.198 1200.34 56.625C1200.4 56.052 1200.58 55.4977 1200.87 54.9999C1201.55 54.1199 1203.47 54.4399 1203.35 55.5599" fill="white"/>
</g>
<path d="M799.707 218.24C765.431 177.544 745.722 126.569 743.707 73.4L780.307 90.64L771.147 79.48C824.556 83.9323 874.116 109.064 909.267 149.52" fill="#FF725E"/>
<g opacity="0.3">
<path d="M819.987 202.08C805.613 191.633 793.535 178.348 784.502 163.046C775.468 147.745 769.67 130.752 767.467 113.12C767.187 110.72 767.467 107.56 769.707 106.76C770.542 106.614 771.4 106.656 772.217 106.885C773.034 107.113 773.789 107.522 774.427 108.08L840.467 151.24C837.599 147.122 835.81 142.349 835.267 137.36L863.267 157.88C864.33 158.471 865.267 159.267 866.022 160.221C866.777 161.175 867.336 162.269 867.667 163.44C867.682 164.756 867.38 166.057 866.789 167.233C866.197 168.409 865.333 169.427 864.267 170.2C859.603 174.411 853.926 177.339 847.791 178.699C841.656 180.059 835.274 179.805 829.267 177.96L841.267 188.4C837.693 190.709 833.689 192.271 829.496 192.993C825.303 193.714 821.007 193.581 816.867 192.6C816.462 194.573 816.657 196.621 817.427 198.482C818.197 200.343 819.507 201.93 821.187 203.04" fill="white"/>
</g>
<g filter="url(#filter0_d_614_424)">
<path d="M1513.37 471.212C1513.37 471.212 1564.57 524.132 1587.85 519.732C1587.85 519.732 1506.97 433.692 1472.97 354.292C1456.73 316.745 1437.38 280.619 1415.13 246.292C1430.45 219.892 1444.09 190.012 1450.33 159.812C1433.13 179.757 1413.53 197.492 1391.97 212.612C1390.21 210.132 1388.41 207.692 1386.57 205.212C1404.66 188.843 1416.72 166.865 1420.81 142.812L1339.97 139.332C1342.5 135.689 1344.79 131.88 1346.81 127.932C1307.1 93.7996 1262.63 65.6247 1214.81 44.2923C1121.81 -8.62772 914.811 -26.1077 814.011 59.9323C723.731 112.572 699.531 179.932 628.411 196.612L586.251 192.012C586.251 192.012 569.851 280.012 623.731 319.332L583.731 310.052C583.731 310.052 591.091 345.092 630.451 383.732L605.891 380.732C605.891 380.732 616.531 435.852 650.531 449.092C650.531 449.092 597.411 455.732 582.531 435.852C582.531 435.852 564.851 518.252 645.291 549.332C645.291 549.332 404.251 577.572 472.011 872.652C488.011 941.572 583.011 991.172 692.411 1015.13L1480.41 1012.05C1528.41 996.372 1585.69 837.332 1587.81 773.372C1589.93 709.412 1558.09 585.852 1558.09 585.852L1587.93 625.572L1513.37 471.212Z" fill="#FF725E"/>
</g>
<path d="M645.027 690.28C599.787 687.56 555.347 722.72 547.627 767.4C577.061 747.877 610.671 735.545 645.747 731.4C631.932 744.106 622.304 760.71 618.139 779.011C613.975 797.313 615.47 816.448 622.427 833.88C628.258 818.299 637.193 804.064 648.689 792.038C660.185 780.012 674.004 770.446 689.307 763.92C678.854 776.528 671.83 791.62 668.915 807.737C666 823.853 667.293 840.449 672.667 855.92" fill="#FF725E"/>
<path d="M672.667 856C672.397 855.477 672.183 854.927 672.027 854.36C671.667 853.28 671.027 851.68 670.387 849.56C668.626 843.265 667.527 836.803 667.107 830.28C666.492 819.968 667.532 809.624 670.187 799.64C673.662 786.433 679.983 774.146 688.707 763.64L689.627 764.88C674.472 771.426 660.792 780.96 649.404 792.911C638.016 804.863 629.154 818.987 623.347 834.44L622.467 836.84L621.507 834.48C616.672 822.308 614.435 809.259 614.937 796.172C615.44 783.084 618.673 770.245 624.427 758.48C629.495 748.09 636.501 738.763 645.067 731L645.867 732.8C610.959 736.918 577.489 749.107 548.107 768.4L546.347 769.56L546.747 767.48C548.525 757.826 551.905 748.538 556.747 740C561.038 732.264 566.428 725.191 572.747 719C582.843 708.783 595.047 700.892 608.507 695.88C617.116 692.657 626.167 690.768 635.347 690.28C638.547 690.28 640.987 690.28 642.587 690.28C640.947 690.28 638.587 690.28 635.387 690.28C626.298 690.977 617.362 693.012 608.867 696.32C595.636 701.411 583.667 709.313 573.787 719.48C567.631 725.618 562.391 732.609 558.227 740.24C553.536 748.646 550.265 757.768 548.547 767.24L547.147 766.32C576.728 746.796 610.468 734.467 645.667 730.32L648.907 729.96L646.467 732.12C638.162 739.72 631.375 748.828 626.467 758.96C620.805 770.481 617.616 783.06 617.106 795.887C616.597 808.714 618.777 821.506 623.507 833.44H621.667C628.002 816.688 637.881 801.502 650.627 788.92C661.721 777.943 674.808 769.187 689.187 763.12L692.227 761.84L690.107 764.36C681.448 774.668 675.13 786.732 671.587 799.72C668.882 809.574 667.735 819.791 668.187 830C668.499 836.467 669.464 842.887 671.067 849.16C671.587 851.32 672.147 852.96 672.427 854.04C672.572 854.684 672.652 855.34 672.667 856Z" fill="#263238"/>
<path d="M1470.99 814.4C1495.41 809.234 1520.86 812.637 1543.07 824.039C1565.27 835.44 1582.87 854.143 1592.91 877" fill="#FF725E"/>
<path d="M1592.91 877C1592.51 877.2 1589.43 869.4 1581.63 858.56C1571.46 844.428 1558.08 832.913 1542.6 824.964C1527.11 817.015 1509.96 812.859 1492.55 812.84C1479.19 812.84 1471.03 814.84 1470.99 814.4C1472.81 813.736 1474.7 813.266 1476.63 813C1481.9 812.006 1487.26 811.47 1492.63 811.4C1510.35 811 1527.89 815.027 1543.66 823.115C1559.43 831.203 1572.93 843.097 1582.95 857.72C1585.99 862.104 1588.67 866.733 1590.95 871.56C1591.81 873.293 1592.46 875.118 1592.91 877Z" fill="#263238"/>
<g opacity="0.3">
<path d="M1193.15 880.88C1164.11 885.52 1127.15 907.48 1113.67 933.52C1110.79 939.08 1113.43 939.84 1113.67 946.08C1113.67 949.225 1114.56 952.306 1116.23 954.972C1117.9 957.638 1120.28 959.782 1123.11 961.16C1124.54 961.742 1126.08 962.017 1127.63 961.966C1129.17 961.915 1130.69 961.54 1132.08 960.865C1133.47 960.19 1134.71 959.23 1135.7 958.047C1136.7 956.865 1137.44 955.486 1137.87 954C1134.4 975.313 1139.05 997.152 1150.91 1015.2C1159.08 1010.59 1165.66 1003.62 1169.79 995.2C1169.03 1010.83 1171.47 1026.44 1176.98 1041.09C1182.48 1055.74 1190.92 1069.1 1201.79 1080.36L1187.63 1025.12C1182.55 1005.12 1177.63 988.12 1178.99 967.6C1180.43 945.68 1193.47 927.2 1203.59 909.04C1189.67 915.08 1173.55 942.44 1159.83 959.12C1159 944.604 1161.49 930.091 1167.1 916.676C1172.7 903.261 1181.28 891.295 1192.19 881.68" fill="black"/>
</g>
<path d="M1187.71 1025.76C1187.25 1025.02 1186.87 1024.23 1186.59 1023.4C1185.99 1021.8 1184.83 1019.4 1183.87 1016.32C1180.87 1007.34 1179.05 998.009 1178.47 988.56C1177.52 974.174 1179.21 959.736 1183.47 945.96C1188.7 928.452 1198.04 912.448 1210.71 899.28L1212.11 900.72C1200.41 911.199 1189.32 922.323 1178.87 934.04C1172.12 941.745 1166.15 950.107 1161.07 959L1159.51 961.76L1159.15 958.64C1157.38 942.143 1160.38 925.485 1167.79 910.64C1173.92 898.059 1183.04 887.17 1194.35 878.92L1195.11 880.28C1187.16 883.239 1179.87 887.739 1173.67 893.52C1168.99 897.861 1164.95 902.844 1161.67 908.32C1159.59 911.809 1157.79 915.461 1156.31 919.24C1155.88 920.603 1155.37 921.938 1154.79 923.24C1154.74 922.895 1154.74 922.545 1154.79 922.2C1154.99 921.48 1155.23 920.44 1155.67 919.12C1156.98 915.215 1158.69 911.449 1160.75 907.88C1163.99 902.234 1168.03 897.087 1172.75 892.6C1179.03 886.638 1186.42 881.975 1194.51 878.88L1199.87 876.84L1195.23 880.24C1184.32 888.461 1175.55 899.191 1169.67 911.52C1162.54 926.054 1159.67 942.305 1161.39 958.4L1159.47 958C1164.62 948.99 1170.65 940.509 1177.47 932.68C1187.98 920.901 1199.16 909.736 1210.95 899.24L1212.35 900.68C1199.86 913.597 1190.6 929.274 1185.31 946.44C1181.01 960.018 1179.2 974.258 1179.95 988.48C1180.41 997.852 1182.01 1007.13 1184.71 1016.12C1185.59 1019.28 1186.63 1021.6 1187.11 1023.24C1187.36 1024.07 1187.56 1024.91 1187.71 1025.76Z" fill="#263238"/>
<path d="M713.107 1021.52C728.818 1038.95 749.492 1051.15 772.347 1056.48C773.589 1056.98 774.939 1057.14 776.264 1056.96C777.59 1056.78 778.845 1056.25 779.907 1055.44C782.227 1052.88 780.307 1048.84 778.387 1046L752.987 1008.48C771.068 1022.77 792.51 1032.19 815.267 1035.84C819.067 1036.44 823.747 1036.44 825.667 1033.16C826.215 1031.72 826.417 1030.17 826.257 1028.63C826.097 1027.1 825.58 1025.62 824.747 1024.32C820.747 1015.76 816.747 1007.32 812.027 999.08" fill="#FF725E"/>
<path d="M812.027 998.92C812.516 999.537 812.932 1000.21 813.267 1000.92L816.467 1006.92C817.907 1009.6 819.547 1012.8 821.467 1016.44C822.48 1018.31 823.52 1020.31 824.587 1022.44C825.918 1024.68 826.776 1027.17 827.107 1029.76C827.218 1031.31 826.763 1032.84 825.827 1034.08C824.799 1035.3 823.391 1036.15 821.827 1036.48C818.735 1036.95 815.58 1036.8 812.547 1036.04C805.936 1034.91 799.424 1033.26 793.067 1031.12C778.34 1026.2 764.577 1018.77 752.387 1009.16L753.907 1007.76L758.307 1014.28L772.467 1035.24L779.227 1045.2C780.426 1046.91 781.307 1048.82 781.827 1050.84C782.132 1051.95 782.076 1053.13 781.666 1054.21C781.256 1055.29 780.514 1056.21 779.547 1056.84C777.667 1057.79 775.504 1058.02 773.467 1057.48C771.587 1057.16 769.907 1056.6 768.147 1056.2C764.667 1055.2 761.347 1054.16 758.227 1052.96C752.388 1050.77 746.742 1048.09 741.347 1044.96C733.524 1040.46 726.283 1035.02 719.787 1028.76C717.507 1026.52 715.787 1024.76 714.747 1023.44C714.144 1022.82 713.608 1022.13 713.147 1021.4C713.848 1021.9 714.492 1022.48 715.067 1023.12C716.227 1024.32 717.987 1026.04 720.347 1028.16C726.984 1034.13 734.269 1039.34 742.067 1043.68C747.439 1046.68 753.044 1049.25 758.827 1051.36C761.947 1052.52 765.227 1053.52 768.627 1054.48C772.027 1055.44 775.827 1056.76 778.547 1055.24C779.181 1054.81 779.658 1054.19 779.903 1053.47C780.149 1052.75 780.15 1051.96 779.907 1051.24C779.435 1049.48 778.635 1047.82 777.547 1046.36C775.347 1043.12 773.107 1039.8 770.787 1036.44C766.2 1029.64 761.467 1022.65 756.587 1015.48L752.187 1008.96L748.187 1003.36L753.667 1007.52C770.918 1021.17 791.24 1030.39 812.867 1034.4C815.683 1035.15 818.618 1035.34 821.507 1034.96C822.727 1034.8 823.84 1034.18 824.62 1033.23C825.4 1032.28 825.789 1031.07 825.707 1029.84C825.43 1027.42 824.669 1025.08 823.467 1022.96C822.427 1020.84 821.427 1018.96 820.507 1016.92L815.827 1007.28L812.947 1001.12C812.542 1000.43 812.232 999.692 812.027 998.92Z" fill="#263238"/>
<g opacity="0.3">
<path d="M811.787 772.64C820.628 787.558 833.568 799.623 849.067 807.4C848.181 799.182 844.772 791.441 839.307 785.24C856.187 801.318 876.186 813.761 898.067 821.8C888.75 825.949 878.581 827.825 868.396 827.272C858.212 826.719 848.305 823.754 839.492 818.621C830.679 813.488 823.212 806.333 817.707 797.748C812.201 789.162 808.815 779.391 807.827 769.24" fill="black"/>
</g>
<g opacity="0.3">
<path d="M704.747 511.96C736.507 573.04 839.227 603.2 919.787 604.52C944.667 604.88 979.787 623.28 1004.43 620.88C1059.75 615.56 1104.67 585.76 1160.11 580.88C1194.63 577.96 1229.35 576.88 1263.47 571.08C1297.59 565.28 1296.03 561.24 1323.15 539.68C1350.27 518.12 1379.59 496.76 1379.15 462.12C1328.19 524.52 1277.83 543.84 1199.39 562.12C1120.95 580.4 1039.39 580 958.947 576.28C870.427 572.28 777.507 562.52 704.747 511.92" fill="black"/>
</g>
<path d="M978.027 43.48C978.387 43.48 978.707 48 979.907 55.16C981.492 64.4783 984.039 73.6071 987.507 82.4C991.055 91.176 995.492 99.5663 1000.75 107.44C1003.14 110.576 1005.37 113.834 1007.43 117.2C1007.43 117.2 1006.51 116.52 1005.11 115C1003.11 112.879 1001.26 110.634 999.547 108.28C993.856 100.541 989.166 92.1144 985.587 83.2C982 74.2179 979.606 64.8044 978.467 55.2C978.091 52.321 977.877 49.423 977.827 46.52C977.747 45.5023 977.814 44.4784 978.027 43.48Z" fill="#FF725E"/>
<path d="M1004.15 33.52C1004.51 33.52 1002.91 37.52 1001.35 44.2C999.374 52.8249 998.714 61.698 999.387 70.52C1000.11 79.3286 1002.17 87.9752 1005.51 96.16C1008.07 102.48 1010.27 106.12 1009.95 106.28C1009.63 106.44 1009.19 105.52 1008.11 103.92C1006.6 101.633 1005.27 99.2399 1004.11 96.76C996.43 80.1882 994.94 61.4153 999.907 43.84C1000.62 41.2102 1001.54 38.642 1002.67 36.16C1003.51 34.24 1004.03 33.28 1004.15 33.52Z" fill="#FF725E"/>
<path d="M514.587 698.32C515.062 697.744 515.599 697.221 516.187 696.76C517.267 695.8 518.827 694.28 521.027 692.76C527.173 687.876 533.671 683.45 540.467 679.52C563.043 666.727 587.614 657.829 613.147 653.2C638.605 648.566 664.395 645.997 690.267 645.52C700.187 645.28 708.187 645.2 713.707 645.2H720.107C720.852 645.137 721.602 645.137 722.347 645.2C721.614 645.382 720.862 645.476 720.107 645.48L713.747 645.8L690.307 646.8C664.561 647.621 638.908 650.295 613.547 654.8C588.229 659.424 563.805 668.038 541.187 680.32C534.396 684.141 527.838 688.362 521.547 692.96C517.107 696.52 514.707 698.44 514.587 698.32Z" fill="#FF725E"/>
<path d="M1087.99 50.88C1087.99 51.24 1081.15 48.96 1070.03 46.24C1063.56 44.6497 1056.93 43.8571 1050.27 43.88C1042.18 43.9364 1034.26 46.19 1027.35 50.4C1023.84 52.5841 1020.78 55.4223 1018.35 58.76C1016.16 61.9168 1014.62 65.4801 1013.83 69.24C1012.68 75.757 1012.97 82.4448 1014.67 88.84C1017.43 99.88 1020.39 106.44 1019.99 106.6C1019.08 105.185 1018.34 103.668 1017.79 102.08C1015.97 97.8969 1014.45 93.5933 1013.23 89.2C1011.28 82.6095 1010.84 75.6633 1011.95 68.88C1012.73 64.8365 1014.34 60.9972 1016.67 57.6C1019.24 54.0121 1022.49 50.956 1026.23 48.6C1033.46 44.2165 1041.77 41.9185 1050.23 41.96C1056.99 42.0256 1063.72 42.9941 1070.23 44.84C1075.79 46.32 1080.19 47.84 1083.23 48.84C1084.88 49.3584 1086.47 50.0418 1087.99 50.88Z" fill="#FF725E"/>
<path d="M1688.11 1053.28C1683.79 1024.56 1669.71 996.28 1645.67 979.92C1621.63 963.56 1587.03 961.64 1564.15 979.6L1469.19 1108L1671.35 1108.84C1682.63 1098.4 1690.39 1068.48 1688.11 1053.28Z" fill="#FF725E"/>
<g opacity="0.3">
<path d="M1553.67 1106.16C1570.75 1099.04 1583.35 1083.72 1591.11 1066.92C1598.87 1050.12 1602.27 1031.72 1605.67 1013.52C1608.47 998.44 1611.11 982.16 1604.55 968.24C1602.98 968.156 1601.42 968.48 1600.02 969.181C1598.61 969.883 1597.42 970.937 1596.55 972.24C1594.79 974.894 1593.51 977.83 1592.75 980.92C1577.11 1030.28 1552.99 1072.92 1513.59 1106.32" fill="black"/>
</g>
<g opacity="0.3">
<path d="M953.187 103.16C973.187 160.8 975.707 223.16 973.547 283.92C972.467 314.24 970.187 344.88 960.707 373.72C951.227 402.56 933.827 429.72 907.987 445.72C883.587 460.8 853.427 464.76 824.947 461C796.467 457.24 769.427 446.32 743.787 433.44C714.507 418.72 686.307 401.12 663.587 377.44C640.867 353.76 622.227 320.68 618.467 288.16L660.627 292.76C660.627 292.76 693.067 289.32 743.507 240.52C798.627 187.24 808.667 180.72 849.947 152.96C881.962 131.789 916.689 115.037 953.187 103.16Z" fill="white"/>
</g>
<g opacity="0.3">
<path d="M1127.43 458.44C1135.4 453.944 1144.63 452.178 1153.7 453.413C1162.77 454.648 1171.19 458.816 1177.67 465.28C1184.08 456.893 1192.76 450.515 1202.69 446.901C1212.61 443.286 1223.36 442.585 1233.67 444.88C1221.17 449.796 1209.53 456.668 1199.19 465.24C1189.31 474.32 1182.19 487.36 1183.43 500.72C1171.07 487.407 1156.85 475.943 1141.23 466.68C1134.75 462.68 1126.23 459.44 1120.15 463.92" fill="black"/>
</g>
<path d="M1265.19 909.08C1241.97 925.747 1224.85 949.568 1216.46 976.891C1208.08 1004.22 1208.88 1033.54 1218.75 1060.36" fill="#FF725E"/>
<path d="M1218.75 1060.36C1218.42 1059.88 1218.16 1059.35 1217.99 1058.8C1217.59 1057.72 1216.91 1056.2 1216.23 1054.12C1214.28 1048.34 1212.79 1042.42 1211.79 1036.4C1208.29 1016.44 1209.57 995.945 1215.52 976.577C1221.46 957.209 1231.9 939.522 1245.99 924.96C1250.2 920.593 1254.76 916.579 1259.63 912.96C1261.31 911.64 1262.75 910.72 1263.63 910.08C1264.51 909.44 1265.11 909.16 1265.15 909.24C1263.53 910.783 1261.84 912.239 1260.07 913.6C1255.46 917.495 1251.11 921.676 1247.03 926.12C1233.41 940.737 1223.29 958.254 1217.43 977.349C1211.57 996.445 1210.12 1016.62 1213.19 1036.36C1214.08 1042.33 1215.35 1048.23 1216.99 1054.04C1217.72 1056.1 1218.3 1058.22 1218.75 1060.36Z" fill="#263238"/>
<path d="M1344.75 770.6C1361.11 758.04 1382.23 744.84 1400.75 753.68C1405.88 756.492 1410.28 760.469 1413.59 765.29C1416.9 770.112 1419.04 775.643 1419.83 781.44C1421.27 793.047 1420.53 804.821 1417.67 816.16C1404.23 882.323 1375.05 944.273 1332.59 996.76C1317.19 1015.8 1295.27 1035.08 1271.35 1029.84C1249.03 1024.92 1236.35 999.4 1237.67 976.56C1238.99 953.72 1250.51 932.96 1261.19 912.56C1286.55 864.56 1311.19 811.92 1344.63 770.44" fill="#FF725E"/>
<path d="M1344.75 770.6C1344.43 771.126 1344.08 771.633 1343.71 772.12L1340.51 776.4C1337.67 780.16 1333.55 785.8 1328.51 793.2C1314.57 814.294 1301.8 836.141 1290.27 858.64L1266.27 905.2C1257.79 922 1247.11 939.36 1241.55 959.68C1238.56 969.999 1238 980.869 1239.91 991.44C1241.92 1002.44 1247.37 1012.53 1255.47 1020.24C1259.66 1024.02 1264.69 1026.76 1270.15 1028.24C1275.73 1029.69 1281.57 1029.84 1287.23 1028.68C1298.8 1025.7 1309.35 1019.66 1317.79 1011.2C1326.42 1002.85 1334.28 993.729 1341.27 983.96C1348.47 974.52 1354.95 964.76 1361.27 955.08C1383.67 919.311 1400.61 880.404 1411.55 839.64C1413.95 830.573 1416 821.747 1417.71 813.16C1419.52 805.022 1420.34 796.695 1420.15 788.36C1419.67 772.64 1411.43 758.36 1399.71 753.6C1394.32 751.322 1388.4 750.615 1382.63 751.56C1377.76 752.381 1373.03 753.847 1368.55 755.92C1362.35 758.859 1356.42 762.339 1350.83 766.32L1346.43 769.44C1345.47 770.12 1344.91 770.44 1344.91 770.44L1346.31 769.28C1347.27 768.48 1348.67 767.4 1350.59 766C1356.09 761.839 1361.98 758.222 1368.19 755.2C1372.7 752.997 1377.51 751.448 1382.47 750.6C1388.89 749.417 1395.51 750.288 1401.41 753.089C1407.31 755.889 1412.17 760.477 1415.31 766.2C1419.17 772.936 1421.33 780.517 1421.59 788.28C1421.86 796.728 1421.09 805.178 1419.31 813.44C1417.59 822.08 1415.59 830.96 1413.23 840.08C1402.38 881.035 1385.46 920.135 1363.03 956.08C1356.79 965.84 1350.27 975.6 1343.03 985.12C1335.96 995.001 1328.03 1004.23 1319.31 1012.68C1310.6 1021.4 1299.69 1027.61 1287.75 1030.64C1281.79 1031.85 1275.63 1031.67 1269.75 1030.12C1263.96 1028.53 1258.64 1025.58 1254.23 1021.52C1245.85 1013.5 1240.24 1003.02 1238.23 991.6C1236.26 980.734 1236.85 969.559 1239.95 958.96C1245.67 938.24 1256.47 920.88 1264.95 904.16C1273.43 887.44 1281.83 871.92 1289.27 857.72C1300.93 835.24 1313.91 813.469 1328.15 792.52C1333.27 785.16 1337.51 779.6 1340.43 775.92L1343.83 771.92C1344.11 771.467 1344.42 771.026 1344.75 770.6Z" fill="#263238"/>
<g opacity="0.3">
<path d="M1346.75 827.64V827.84C1350.75 816.56 1359.27 813.32 1368.43 810C1377.59 806.68 1388.67 807.04 1396.03 813.44C1404.51 820.8 1405.59 833.76 1403.31 844.76C1402.77 848.647 1401.18 852.312 1398.71 855.36C1397.43 856.841 1395.71 857.876 1393.81 858.314C1391.9 858.753 1389.9 858.573 1388.11 857.8C1384.11 855.6 1382.87 849.8 1378.63 848.04C1374.39 846.28 1368.79 850.24 1363.67 851.52C1360.16 852.197 1356.54 851.643 1353.39 849.952C1350.25 848.261 1347.79 845.537 1346.43 842.24C1345.51 839.907 1345.06 837.415 1345.12 834.908C1345.17 832.401 1345.73 829.93 1346.75 827.64Z" fill="black"/>
</g>
<g opacity="0.3">
<path d="M1364.19 771.32C1366.24 772.235 1367.96 773.776 1369.08 775.723C1370.21 777.669 1370.7 779.922 1370.47 782.16C1370.27 787.181 1369.17 792.126 1367.23 796.76C1365.83 800.76 1363.47 805.2 1359.23 805.36C1358.04 805.328 1356.88 804.991 1355.85 804.382C1354.83 803.772 1353.98 802.911 1353.39 801.88C1352.24 799.79 1351.6 797.462 1351.51 795.08C1351.11 789.628 1351.96 784.156 1353.99 779.08C1354.86 776.434 1356.51 774.109 1358.71 772.4C1359.82 771.56 1361.17 771.105 1362.57 771.105C1363.96 771.105 1365.32 771.56 1366.43 772.4" fill="black"/>
</g>
<g opacity="0.3">
<path d="M1412.11 781.16C1414.16 782.075 1415.88 783.616 1417 785.562C1418.13 787.509 1418.62 789.762 1418.39 792C1418.18 797.021 1417.09 801.965 1415.15 806.6C1413.75 810.6 1411.35 815.04 1407.15 815.2C1405.96 815.172 1404.79 814.836 1403.77 814.227C1402.75 813.617 1401.9 812.754 1401.31 811.72C1400.12 809.646 1399.48 807.308 1399.43 804.92C1399.04 799.471 1399.87 794.004 1401.87 788.92C1402.76 786.271 1404.41 783.947 1406.63 782.24C1407.74 781.393 1409.09 780.935 1410.49 780.935C1411.88 780.935 1413.24 781.393 1414.35 782.24" fill="black"/>
</g>
<g opacity="0.3">
<path d="M1391.87 762.84C1393.91 763.777 1395.62 765.328 1396.74 767.278C1397.87 769.227 1398.36 771.479 1398.15 773.72C1397.93 778.726 1396.83 783.654 1394.91 788.28C1393.47 792.28 1391.11 796.76 1386.91 796.88C1385.72 796.852 1384.55 796.516 1383.53 795.907C1382.51 795.297 1381.66 794.434 1381.07 793.4C1379.91 791.329 1379.28 789.009 1379.23 786.64C1378.79 781.19 1379.63 775.713 1381.67 770.64C1382.54 767.981 1384.2 765.651 1386.43 763.96C1387.53 763.123 1388.88 762.67 1390.27 762.67C1391.65 762.67 1393 763.123 1394.11 763.96" fill="black"/>
</g>
<g opacity="0.3">
<path d="M1376.35 926.36C1373.15 950.562 1366.57 974.194 1356.79 996.56C1346.92 1019.02 1331.84 1038.79 1312.79 1054.24C1303.99 1061.12 1293.67 1067.04 1282.51 1067.32C1266.71 1067.72 1252.31 1056.4 1245.19 1042.28C1238.07 1028.16 1237.19 1011.76 1237.91 996C1245.55 1008.76 1254.15 1022.36 1267.99 1028C1274.1 1030.05 1280.59 1030.75 1287 1030.06C1293.42 1029.37 1299.61 1027.31 1305.15 1024C1316.19 1017.31 1325.84 1008.57 1333.59 998.24C1350.73 977.319 1364.81 954.075 1375.43 929.2" fill="black"/>
</g>
<path d="M480.467 773.8C460.787 767.76 436.467 762.76 421.987 777.56C418.193 782.011 415.493 787.289 414.104 792.971C412.715 798.652 412.675 804.58 413.987 810.28C416.69 821.668 421.492 832.452 428.147 842.08C463.902 899.346 512.907 947.171 571.027 981.52C592.107 993.92 619.387 1004.32 639.947 991C659.187 978.6 662.067 950.24 652.867 929.32C643.667 908.4 625.667 892.84 608.427 877.52C567.867 841.52 526.347 800.8 480.427 773.52" fill="#FF725E"/>
<path d="M480.467 773.8C480.467 773.8 481.027 774.04 482.107 774.64L486.707 777.36C490.707 779.8 496.667 783.52 504.067 788.6C524.729 803.25 544.51 819.104 563.307 836.08L602.387 871.04C616.187 883.72 632.387 896.2 644.987 913.6C651.614 922.436 656.092 932.693 658.067 943.56C660.12 954.991 658.51 966.778 653.467 977.24C650.729 982.569 646.784 987.185 641.947 990.72C636.975 994.25 631.251 996.578 625.227 997.52C612.927 998.902 600.482 996.911 589.227 991.76C578.064 986.892 567.355 981.043 557.227 974.28C547.147 967.88 537.587 961 528.347 954.08C510.814 940.528 494.364 925.629 479.147 909.52C465.305 894.933 452.526 879.373 440.907 862.96C435.507 855.24 430.507 847.6 425.907 840.12C421.323 833.012 417.629 825.368 414.907 817.36C412.432 809.999 411.8 802.142 413.067 794.48C414 788.022 416.945 782.021 421.484 777.332C426.022 772.643 431.922 769.504 438.347 768.36C443.291 767.444 448.337 767.202 453.347 767.64C460.218 768.329 467.009 769.669 473.627 771.64C475.907 772.28 477.627 772.8 478.747 773.2L480.467 773.84L478.707 773.4L473.507 772.04C466.874 770.277 460.103 769.086 453.267 768.48C448.343 768.118 443.393 768.414 438.547 769.36C432.798 770.523 427.498 773.298 423.267 777.36C413.947 785.96 411.267 802.2 416.307 817.08C419.044 824.949 422.724 832.457 427.267 839.44C431.907 846.88 436.92 854.44 442.307 862.12C466.84 896.46 496.35 926.954 529.867 952.6C539.067 959.52 548.587 966.36 558.627 972.6C568.603 979.302 579.166 985.085 590.187 989.88C601.036 994.872 613.033 996.835 624.907 995.56C630.668 994.684 636.145 992.479 640.907 989.12C645.497 985.793 649.227 981.418 651.787 976.36C656.664 966.304 658.232 954.962 656.267 943.96C654.372 933.384 650.03 923.398 643.587 914.8C631.267 897.68 615.187 885.16 601.387 872.4L562.507 837.24C543.823 820.165 524.207 804.141 503.747 789.24C496.467 784.04 490.627 780.24 486.667 777.68L482.147 774.8L480.467 773.8Z" fill="#263238"/>
<g opacity="0.3">
<path d="M498.627 827.88C490.907 818.72 481.827 818.64 472.067 818.76C462.307 818.88 452.067 823.12 447.427 831.64C442.067 841.56 445.587 854.04 451.427 863.64C453.261 867.098 456.034 869.968 459.427 871.92C461.132 872.876 463.1 873.256 465.039 873.004C466.978 872.752 468.783 871.881 470.187 870.52C473.187 867.04 472.347 861.24 475.627 858.04C478.907 854.84 485.667 856.64 490.867 856.08C494.384 855.485 497.589 853.696 499.942 851.015C502.295 848.334 503.653 844.925 503.787 841.36C503.894 836.365 502.042 831.527 498.627 827.88Z" fill="black"/>
</g>
<g opacity="0.3">
<path d="M462.507 781.24C460.904 782.828 459.841 784.879 459.468 787.105C459.094 789.33 459.43 791.616 460.427 793.64C462.333 798.253 465.042 802.492 468.427 806.16C471.107 809.32 474.947 812.76 478.867 811.44C479.972 810.994 480.943 810.269 481.686 809.337C482.429 808.405 482.918 807.297 483.107 806.12C483.467 803.772 483.262 801.372 482.507 799.12C480.94 793.858 478.205 789.018 474.507 784.96C472.76 782.772 470.388 781.168 467.707 780.36C466.367 779.992 464.944 780.07 463.652 780.582C462.36 781.095 461.271 782.014 460.547 783.2" fill="black"/>
</g>
<g opacity="0.3">
<path d="M421.107 807.28C419.507 808.862 418.446 810.906 418.072 813.124C417.699 815.343 418.033 817.622 419.027 819.64C420.931 824.254 423.64 828.494 427.027 832.16C429.747 835.32 433.547 838.76 437.507 837.44C438.608 836.987 439.575 836.261 440.317 835.33C441.059 834.399 441.551 833.294 441.747 832.12C442.094 829.769 441.875 827.369 441.107 825.12C439.555 819.852 436.819 815.008 433.107 810.96C431.36 808.772 428.988 807.168 426.307 806.36C424.967 805.992 423.544 806.07 422.252 806.582C420.96 807.095 419.87 808.014 419.147 809.2" fill="black"/>
</g>
<g opacity="0.3">
<path d="M433.667 783.04C432.067 784.622 431.006 786.666 430.633 788.884C430.259 791.103 430.593 793.382 431.587 795.4C433.491 800.014 436.2 804.254 439.587 807.92C442.307 811.08 446.107 814.52 450.067 813.2C451.17 812.75 452.139 812.025 452.881 811.093C453.624 810.162 454.115 809.055 454.307 807.88C454.654 805.529 454.435 803.129 453.667 800.88C452.115 795.612 449.379 790.768 445.667 786.72C443.92 784.532 441.548 782.928 438.867 782.12C437.527 781.752 436.104 781.83 434.812 782.342C433.52 782.855 432.43 783.773 431.707 784.96" fill="black"/>
</g>
<g opacity="0.3">
<path d="M505.667 930.72C517.096 952.226 531.49 972.019 548.427 989.52C565.454 1007.13 586.453 1020.41 609.667 1028.24C620.307 1031.64 632.027 1033.56 642.587 1029.92C657.547 1024.76 667.027 1009.12 668.747 993.4C670.467 977.68 665.667 961.96 659.347 947.48C656.667 962.12 653.387 977.88 642.347 987.88C637.379 991.948 631.588 994.892 625.373 996.508C619.159 998.124 612.668 998.373 606.347 997.24C593.661 994.857 581.549 990.063 570.667 983.12C547.305 969.51 525.975 952.678 507.307 933.12" fill="black"/>
</g>
<g opacity="0.3">
<path d="M490.787 909C489.627 910.6 488.467 912.24 487.347 913.88C492.287 905.912 498.791 899.028 506.466 893.644C514.141 888.26 522.828 884.488 532.002 882.555C541.176 880.623 550.646 880.571 559.841 882.401C569.036 884.232 577.764 887.908 585.498 893.206C593.233 898.505 599.813 905.317 604.84 913.23C609.868 921.143 613.239 929.993 614.751 939.246C616.262 948.499 615.881 957.961 613.633 967.063C611.384 976.165 607.313 984.716 601.667 992.2C556.698 973.814 515.988 946.379 482.067 911.6" fill="white"/>
</g>
<path d="M1620.07 869.52C1620.1 870.418 1620.03 871.317 1619.87 872.2C1619.59 874.2 1619.23 876.72 1618.83 879.88C1617.91 886.56 1616.35 896.16 1614.15 907.88C1608.7 938.828 1600.51 969.228 1589.67 998.72C1583.43 1014.9 1575.9 1030.55 1567.15 1045.52C1565.11 1048.96 1562.91 1052.16 1560.91 1055.36L1557.87 1060.04L1554.63 1064.4L1548.47 1072.6C1546.35 1075.12 1544.23 1077.48 1542.23 1079.72C1540.23 1081.96 1538.43 1084.24 1536.43 1086.08L1530.91 1091.4L1526.07 1096L1521.67 1099.48L1515.55 1104.28C1514.87 1104.88 1514.12 1105.39 1513.31 1105.8C1513.91 1105.12 1514.57 1104.5 1515.27 1103.92L1521.15 1098.88L1525.39 1095.28L1530.07 1090.56L1535.47 1085.2C1537.43 1083.32 1539.15 1081 1541.11 1078.76L1547.19 1071.6L1553.23 1063.36L1556.39 1059.04C1557.39 1057.52 1558.35 1055.96 1559.35 1054.36C1561.35 1051.16 1563.35 1047.96 1565.51 1044.56C1574.03 1029.62 1581.39 1014.06 1587.55 998C1598.39 968.658 1606.8 938.477 1612.71 907.76C1615.07 896 1616.71 886.44 1618.03 879.76C1618.59 876.64 1619.07 874.12 1619.43 872.16C1619.57 871.265 1619.79 870.383 1620.07 869.52Z" fill="#263238"/>
<path d="M699.827 626.88C700.351 626.16 700.97 625.514 701.667 624.96L707.227 619.76C709.667 617.48 712.667 614.76 716.267 611.76C719.867 608.76 723.867 605.12 728.507 601.44C737.667 593.88 748.907 585.44 761.747 576.24C774.587 567.04 789.107 557.88 804.787 548.76C820.467 539.64 835.867 531.8 850.027 525.08C864.187 518.36 877.307 513.08 888.427 508.8C893.947 506.6 899.027 504.8 903.467 503.28C907.907 501.76 911.787 500.44 914.947 499.48L922.267 497.24C923.094 496.933 923.953 496.719 924.827 496.6C924.043 497.012 923.227 497.36 922.387 497.64L915.187 500.24C912.067 501.32 908.267 502.68 903.867 504.24C899.467 505.8 894.427 507.72 888.947 510C877.947 514.36 864.947 520 850.867 526.68C836.787 533.36 821.667 541.52 805.667 550.48C789.667 559.44 775.587 568.88 762.667 577.76C749.747 586.64 738.667 595.12 729.267 602.52C724.587 606.12 720.507 609.6 716.867 612.6C713.227 615.6 710.107 618.16 707.627 620.36L701.787 625.28C701.198 625.888 700.54 626.425 699.827 626.88Z" fill="#263238"/>
<path d="M587.227 560.08C587.227 560.08 587.467 559.88 587.947 559.52L590.187 558L598.987 552.4C602.787 549.96 607.467 547.04 613.067 543.88C618.667 540.72 625.067 536.88 632.107 533.2L643.307 527.24C647.307 525.2 651.307 523.24 655.667 521.16C664.147 516.88 673.507 512.88 683.267 508.52C702.987 500.2 724.987 491.88 748.587 484.52C772.187 477.16 795.107 471.84 816.107 467.68C826.627 465.8 836.627 463.88 846.067 462.64C850.747 462 855.307 461.24 859.667 460.76L872.307 459.36C880.307 458.4 887.627 458 894.027 457.52C900.427 457.04 906.027 456.76 910.507 456.64L920.907 456.36H923.587C923.904 456.299 924.23 456.299 924.547 456.36H923.627L920.907 456.6L910.547 457.28C906.027 457.52 900.507 457.84 894.147 458.48C887.787 459.12 880.467 459.56 872.467 460.64L859.867 462.16C855.507 462.68 850.987 463.48 846.307 464.16C836.907 465.44 826.947 467.44 816.467 469.36C795.587 473.64 772.747 479.16 749.187 486.32C725.627 493.48 703.707 501.84 684.027 510.04C674.267 514.32 664.907 518.28 656.427 522.48C652.147 524.56 647.947 526.48 644.027 528.44L632.787 534.28C625.587 537.88 619.267 541.56 613.667 544.64C608.067 547.72 603.267 550.52 599.387 552.84L590.427 558.12L588.067 559.44C587.547 560 587.227 560.12 587.227 560.08Z" fill="#263238"/>
<path d="M1063.91 428.24C1064.15 428.84 1053.83 433.2 1042.43 440.84C1031.03 448.48 1022.99 456.28 1022.43 455.8C1033.35 442.912 1047.69 433.36 1063.79 428.24H1063.91Z" fill="#263238"/>
<path d="M1131.59 449.96C1131.59 450.36 1125.67 447.68 1115.87 445.2C1103.1 441.866 1089.87 440.649 1076.71 441.6C1063.54 442.15 1050.65 445.577 1038.95 451.64C1034.29 454.444 1030.28 458.207 1027.19 462.68C1027.6 461.225 1028.29 459.865 1029.23 458.68C1031.66 455.361 1034.7 452.536 1038.19 450.36C1046.91 444.64 1060.95 440.68 1076.55 439.48C1089.93 438.51 1103.39 439.946 1116.27 443.72C1120.15 444.805 1123.96 446.141 1127.67 447.72C1129.05 448.323 1130.37 449.074 1131.59 449.96Z" fill="#263238"/>
<path d="M1000.15 483.32L1004.83 494.52C1006.21 497.418 1007.15 500.505 1007.63 503.68C1007.85 505.275 1007.73 506.901 1007.28 508.446C1006.82 509.992 1006.04 511.422 1004.99 512.64C1003.19 514.161 1000.94 515.051 998.581 515.174C996.227 515.297 993.897 514.646 991.947 513.32C988.158 510.514 985.357 506.579 983.947 502.08C982.267 497.68 981.147 493.04 979.107 488.8C981.701 486.434 983.657 483.454 984.797 480.134C985.936 476.813 986.222 473.26 985.627 469.8C985.627 469.8 989.667 482.6 1000.15 483.32Z" fill="#F5F5F5"/>
<path d="M934.827 442.52C938.37 435.385 943.363 429.067 949.486 423.97C955.609 418.873 962.727 415.11 970.387 412.92C995.907 406.2 1022.39 432.92 1022.39 432.92C1022.39 432.92 991.547 423.84 991.987 439.16C992.427 454.48 1001.51 454.12 991.267 464.2C981.027 474.28 963.467 463.68 959.267 451.8L951.027 440.2L934.827 442.52Z" fill="#263238"/>
<path d="M1040.51 457.52C1040.51 457.52 1040.51 458.04 1040.71 458.96C1040.84 460.357 1040.84 461.763 1040.71 463.16C1039.97 468.286 1037.91 473.128 1034.71 477.2C1032.37 480.291 1029.44 482.877 1026.07 484.802C1022.71 486.727 1018.99 487.951 1015.15 488.4C1010.4 488.762 1005.63 487.998 1001.23 486.17C996.828 484.342 992.922 481.502 989.827 477.88C986.762 474.361 984.606 470.145 983.547 465.6L985.507 465.04C986.71 468.805 987.036 472.795 986.461 476.705C985.886 480.615 984.424 484.342 982.187 487.6C979.161 491.838 974.88 495.017 969.949 496.69C965.018 498.362 959.686 498.443 954.707 496.92C953.658 496.602 952.64 496.187 951.667 495.68C951.027 495.32 950.707 495.12 950.707 495.04C950.707 494.96 952.187 495.6 954.907 496.24C958.751 497.117 962.743 497.117 966.587 496.24C972.349 494.941 977.399 491.494 980.707 486.6C982.726 483.553 984.033 480.09 984.532 476.468C985.03 472.847 984.707 469.16 983.587 465.68L985.547 465.16C986.567 469.364 988.584 473.26 991.427 476.52C994.31 479.9 997.939 482.563 1002.03 484.298C1006.12 486.034 1010.55 486.794 1014.99 486.52C1018.61 486.126 1022.12 485.018 1025.31 483.26C1028.5 481.503 1031.32 479.13 1033.59 476.28C1036.76 472.446 1038.93 467.882 1039.91 463C1040.43 459.64 1040.31 457.52 1040.51 457.52Z" fill="#263238"/>
<path d="M991.067 416.68C988.42 417.077 985.739 417.197 983.067 417.04C976.596 416.972 970.147 417.807 963.907 419.52C957.743 421.319 952.148 424.681 947.667 429.28C944.347 432.92 943.147 435.84 942.827 435.72C943.353 432.947 944.657 430.38 946.587 428.32C950.95 423.123 956.776 419.36 963.307 417.52C969.746 415.735 976.443 415.072 983.107 415.56C985.802 415.517 988.488 415.895 991.067 416.68Z" fill="white"/>
<path d="M998.747 516.08C994.889 509.595 991.979 502.59 990.107 495.28C987.608 488.167 986.152 480.73 985.787 473.2C986.387 473.2 988.507 482.88 992.107 494.68C995.707 506.48 999.307 515.84 998.747 516.08Z" fill="#263238"/>
<path d="M713.947 560.92C714.434 560.402 714.969 559.933 715.547 559.52L720.387 555.76C724.387 552.52 730.907 548.08 738.867 542.88C746.827 537.68 756.507 531.84 767.587 525.84C778.667 519.84 791.147 513.84 804.587 508.36C818.027 502.88 831.107 498.4 843.147 494.76C855.187 491.12 866.227 488.48 875.547 486.76C884.867 485.04 892.467 483.56 897.747 482.76L903.827 482C904.532 481.92 905.243 481.92 905.947 482C905.284 482.286 904.584 482.474 903.867 482.56L897.867 483.68C892.627 484.56 885.107 486.08 875.867 488.16C866.627 490.24 855.867 493.04 843.867 496.68C831.867 500.32 818.907 504.92 805.507 510.36C792.107 515.8 779.747 521.84 768.627 527.64C757.507 533.44 747.827 539.16 739.787 544.2C731.747 549.24 725.387 553.48 721.027 556.52L715.947 559.92C714.627 560.64 713.987 561 713.947 560.92Z" fill="#263238"/>
<path d="M914.379 384.711C925.932 336.253 896.015 287.605 847.557 276.051C799.099 264.498 750.451 294.415 738.897 342.873C727.344 391.331 757.261 439.98 805.719 451.533C854.177 463.086 902.826 433.169 914.379 384.711Z" fill="#F5F5F5"/>
<path d="M916.907 363.92C916.907 407.44 887.507 442.76 862.627 442.76C837.747 442.76 817.667 407.44 817.667 363.92C817.667 320.4 837.667 285.04 862.787 285.04C887.907 285.04 916.907 320.36 916.907 363.92Z" fill="#263238"/>
<path d="M882.627 334.76C891.154 334.76 898.067 327.847 898.067 319.32C898.067 310.793 891.154 303.88 882.627 303.88C874.1 303.88 867.187 310.793 867.187 319.32C867.187 327.847 874.1 334.76 882.627 334.76Z" fill="white"/>
<path d="M842.707 421.2C841.807 420.045 841.055 418.782 840.467 417.44C838.581 413.899 836.964 410.222 835.627 406.44C833.552 400.847 831.933 395.095 830.787 389.24C829.428 382.063 828.678 374.784 828.547 367.48C828.522 360.162 829.124 352.855 830.347 345.64C831.374 339.769 832.872 333.99 834.827 328.36C836.078 324.556 837.616 320.852 839.427 317.28C839.97 315.858 840.696 314.514 841.587 313.28C841.947 313.28 839.187 319.08 836.227 328.68C834.509 334.29 833.173 340.01 832.227 345.8C831.137 352.908 830.602 360.089 830.627 367.28C830.757 374.468 831.439 381.636 832.667 388.72C833.718 394.509 835.175 400.216 837.027 405.8C840.187 415.48 843.067 421.04 842.707 421.2Z" fill="white"/>
<path d="M803.787 249.04C803.547 251.96 800.187 254.2 795.787 256.28C791.387 258.36 785.427 260.28 779.547 262.96C773.667 265.64 768.507 267.96 764.107 269.96C759.707 271.96 756.107 273.16 753.507 271.6C750.907 270.04 750.587 265.68 753.507 259.88C757.453 252.562 763.877 246.889 771.627 243.88C779.049 240.609 787.335 239.851 795.227 241.72C800.867 243.24 804.027 246.24 803.787 249.04Z" fill="#263238"/>
<path d="M373.307 1017.52L393.587 985.76C490.147 1091.84 809.187 1218 1094.83 932.84C1217.51 810.36 1207.59 603.4 1207.59 603.4L1183.19 526.76H1207.59C1207.59 526.76 1278.31 657.2 1204.27 828C1204.27 828 1128.27 1030.44 895.587 1104C528.547 1219.92 373.307 1017.52 373.307 1017.52Z" fill="#FF725E"/>
<g opacity="0.7">
<path d="M373.307 1017.52L393.587 985.76C490.147 1091.84 809.187 1218 1094.83 932.84C1217.51 810.36 1207.59 603.4 1207.59 603.4L1183.19 526.76H1207.59C1207.59 526.76 1278.31 657.2 1204.27 828C1204.27 828 1128.27 1030.44 895.587 1104C528.547 1219.92 373.307 1017.52 373.307 1017.52Z" fill="white"/>
</g>
<path d="M367.837 1056.33C435.554 988.613 435.554 878.822 367.837 811.105C300.12 743.388 190.329 743.389 122.612 811.105C54.8954 878.822 54.8953 988.613 122.612 1056.33C190.329 1124.05 300.12 1124.05 367.837 1056.33Z" fill="#FF725E"/>
<g opacity="0.7">
<path d="M367.837 1056.33C435.554 988.613 435.554 878.822 367.837 811.105C300.12 743.388 190.329 743.389 122.612 811.105C54.8954 878.822 54.8953 988.613 122.612 1056.33C190.329 1124.05 300.12 1124.05 367.837 1056.33Z" fill="white"/>
</g>
<path d="M286.787 765.16C286.694 766.27 286.493 767.369 286.187 768.44C285.707 770.76 284.987 773.88 284.147 777.84C283.667 779.88 283.147 782.16 282.587 784.6C282.027 787.04 281.147 789.68 280.347 792.6C278.627 798.28 276.987 804.84 274.347 811.84L270.347 822.88C268.987 826.88 267.267 830.6 265.627 834.68C262.507 842.88 258.347 851.32 254.147 860.24C244.523 879.391 233.535 897.825 221.267 915.4C208.747 932.805 194.991 949.288 180.107 964.72C173.027 971.64 166.467 978.32 159.747 984C156.467 986.88 153.347 989.8 150.187 992.36L141.027 999.68C135.307 1004.48 129.667 1008.2 125.027 1011.68C122.587 1013.4 120.387 1015.04 118.267 1016.44L112.387 1020.16L104.387 1025.2C103.475 1025.85 102.496 1026.4 101.467 1026.84C102.317 1026.12 103.212 1025.45 104.147 1024.84L112.147 1019.48L117.907 1015.48C119.987 1014 122.147 1012.32 124.547 1010.6C129.267 1007.04 134.827 1003.2 140.547 998.36L149.587 991C152.747 988.4 155.787 985.48 159.027 982.56C165.667 976.84 172.187 970.12 179.027 963.2C193.69 947.812 207.269 931.426 219.667 914.16C231.886 896.679 242.872 878.368 252.547 859.36C256.787 850.48 260.947 842.12 264.147 834C265.827 830 267.587 826 268.987 822.28C270.387 818.56 271.707 814.8 272.987 811.32C275.707 804.36 277.467 797.84 279.267 792.24C280.107 789.4 280.987 786.76 281.667 784.24C282.347 781.72 282.867 779.56 283.387 777.52C284.427 773.52 285.227 770.52 285.827 768.24C286.06 767.188 286.381 766.158 286.787 765.16Z" fill="#FF725E"/>
<path d="M327.787 782.84C327.664 784.018 327.436 785.182 327.107 786.32C326.547 788.76 325.787 792.04 324.787 796.2C324.267 798.36 323.667 800.76 323.027 803.36C322.387 805.96 321.467 808.72 320.547 811.72C318.667 817.68 316.867 824.64 313.947 831.96L309.667 843.6C308.187 847.6 306.227 851.6 304.427 856C300.947 864.6 296.427 873.44 291.747 882.76C281.112 902.791 268.942 921.968 255.347 940.12C241.538 958.08 226.388 974.968 210.027 990.64C202.347 997.72 195.067 1004.52 187.787 1010.28C184.187 1013.2 180.827 1016.2 177.347 1018.72L167.387 1026.12C161.187 1030.96 155.067 1034.72 149.867 1038.12C144.667 1041.52 140.067 1044.44 136.267 1046.64L127.467 1051.76C126.468 1052.39 125.425 1052.95 124.347 1053.44C125.267 1052.69 126.243 1052 127.267 1051.4L135.827 1045.96C139.587 1043.64 144.147 1040.8 149.227 1037.16C154.307 1033.52 160.387 1029.72 166.547 1024.84L176.347 1017.52C179.787 1014.96 183.107 1011.92 186.667 1009C193.907 1003.2 201.067 996.4 208.707 989.32C224.887 973.596 239.913 956.725 253.667 938.84C267.185 920.791 279.326 901.751 289.987 881.88C294.707 872.6 299.267 863.84 302.827 855.28C304.627 851.04 306.827 847.04 308.107 843C309.387 838.96 311.107 835 312.507 831.48C315.507 824.16 317.387 817.32 319.387 811.48C320.347 808.48 321.347 805.72 322.067 803.16C322.787 800.6 323.387 798.24 323.947 796.08C325.107 792.08 325.987 788.72 326.667 786.32C326.971 785.139 327.345 783.977 327.787 782.84Z" fill="#FF725E"/>
<path d="M365.667 814C365.466 815.168 365.172 816.319 364.787 817.44C364.067 819.88 363.067 823.12 361.827 827.28C361.187 829.4 360.427 831.76 359.667 834.32C358.907 836.88 357.747 839.64 356.667 842.64C354.427 848.52 352.147 855.36 348.667 862.64L343.747 874.12C342.027 878.12 339.947 882.12 337.907 886.36C333.907 894.84 329.027 903.56 323.987 912.8C312.608 932.547 299.898 951.498 285.947 969.52C271.659 987.356 256.156 1004.18 239.547 1019.88C231.547 1026.96 224.427 1033.76 217.027 1039.56C213.387 1042.48 209.987 1045.44 206.467 1048.04L196.427 1055.48C190.107 1060.32 183.987 1064.12 178.747 1067.48C176.107 1069.2 173.667 1070.88 171.347 1072.28L164.987 1076.04L156.107 1081.16C155.092 1081.79 154.037 1082.35 152.947 1082.84C153.878 1082.08 154.868 1081.4 155.907 1080.8L164.547 1075.36L170.827 1071.36C173.107 1069.92 175.507 1068.2 178.107 1066.44C183.267 1062.8 189.307 1058.96 195.547 1054.04C198.747 1051.64 202.067 1049.16 205.507 1046.52C208.947 1043.88 212.307 1040.92 215.947 1037.96C223.227 1032.16 230.507 1025.32 238.227 1018.28C254.679 1002.55 270.072 985.757 284.307 968C298.313 950.081 311.114 931.253 322.627 911.64C327.707 902.44 332.707 893.84 336.707 885.4C338.747 881.4 340.707 877.4 342.627 873.4C344.547 869.4 346.027 865.6 347.627 862C350.987 854.8 353.347 848 355.627 842C356.787 839.08 357.867 836.36 358.787 833.8C359.707 831.24 360.427 828.92 361.147 826.8C362.547 822.8 363.667 819.52 364.467 817.12C364.794 816.053 365.195 815.011 365.667 814Z" fill="#FF725E"/>
<path d="M411.147 978.52C409.748 978.169 408.402 977.631 407.147 976.92C404.747 975.8 401.267 974.04 397.027 971.84C388.547 967.44 377.027 961.04 364.427 953.52C351.827 946 340.867 938.76 332.987 933.32C328.987 930.6 325.907 928.36 323.747 926.72C322.578 925.972 321.503 925.086 320.547 924.08C321.856 924.583 323.093 925.255 324.227 926.08L333.787 932.08C341.787 937.2 353.027 944.08 365.507 951.72C377.987 959.36 389.507 965.84 397.747 970.56L407.547 976.2C408.854 976.793 410.067 977.575 411.147 978.52Z" fill="#FF725E"/>
<path d="M418.467 941C414.434 938.731 410.558 936.192 406.867 933.4C399.787 928.56 389.947 922 378.867 915.2C367.787 908.4 357.347 902.72 349.827 898.56C345.665 896.501 341.655 894.148 337.827 891.52C339.06 891.802 340.245 892.26 341.347 892.88C343.547 893.84 346.667 895.32 350.507 897.24C358.187 901.24 368.707 906.64 379.947 913.44C391.187 920.24 400.907 927.04 407.947 932.2C411.387 934.8 414.147 936.92 415.947 938.48C417.747 940.04 418.587 940.92 418.467 941Z" fill="#FF725E"/>
<path d="M311.627 1090.32C311.027 1090.32 309.667 1058.56 308.587 1019.32C307.507 980.08 307.067 948.24 307.627 948.24C308.187 948.24 309.547 980 310.667 1019.24C311.787 1058.48 312.187 1090.32 311.627 1090.32Z" fill="#FF725E"/>
<path d="M226.147 1110.2C225.093 1096.99 224.746 1083.73 225.107 1070.48C224.745 1057.23 225.092 1043.97 226.147 1030.76C227.178 1043.97 227.525 1057.23 227.187 1070.48C227.524 1083.73 227.177 1096.99 226.147 1110.2Z" fill="#FF725E"/>
<path d="M268.147 1105.52C267.587 1105.52 267.267 1079.52 267.507 1047.48C267.747 1015.44 268.347 989.4 268.947 989.4C269.547 989.4 269.787 1015.4 269.587 1047.48C269.387 1079.56 268.707 1105.52 268.147 1105.52Z" fill="#FF725E"/>
<path d="M179.507 964.68C179.187 965.16 156.547 950.56 128.987 932.04C101.427 913.52 79.2669 898.12 79.5869 897.52C79.9069 896.92 102.547 911.64 130.147 930.16C157.747 948.68 179.827 964.2 179.507 964.68Z" fill="#FF725E"/>
<path d="M149.307 989.52C148.107 989.337 146.945 988.959 145.867 988.4C143.747 987.56 140.667 986.2 136.947 984.4C127.334 979.704 117.987 974.482 108.947 968.76C98.307 962.04 88.947 955.36 82.467 950.4C78.791 947.89 75.3502 945.052 72.187 941.92C76.0695 944.088 79.7983 946.52 83.347 949.2C90.107 953.88 99.347 960.32 110.067 967C120.787 973.68 130.547 979.2 137.787 983C141.752 984.945 145.598 987.123 149.307 989.52Z" fill="#FF725E"/>
<path d="M253.387 859.92C251.43 860.864 249.396 861.64 247.307 862.24C244.896 863.13 242.439 863.892 239.947 864.52C237.067 865.32 233.787 866.24 230.107 867C221.476 868.863 212.74 870.199 203.947 871C193.176 871.958 182.357 872.292 171.547 872C160.739 871.611 149.962 870.609 139.267 869C130.542 867.654 121.902 865.811 113.387 863.48C109.747 862.56 106.507 861.52 103.667 860.6C100.827 859.68 98.3472 858.84 96.4272 858.04C94.3436 857.363 92.3227 856.506 90.3872 855.48C92.5261 855.908 94.6265 856.51 96.6672 857.28C98.6672 857.96 101.107 858.72 103.987 859.48C106.867 860.24 110.107 861.24 113.747 862.08C121.027 863.96 129.747 865.56 139.547 867.12C150.16 868.595 160.84 869.529 171.547 869.92C182.221 870.195 192.902 869.915 203.547 869.08C212.312 868.368 221.032 867.179 229.667 865.52C233.387 864.88 236.667 864.04 239.547 863.36C242.427 862.68 244.947 862.04 246.947 861.44C249.039 860.723 251.196 860.214 253.387 859.92Z" fill="#FF725E"/>
<path d="M272.547 815.04C270.663 816.103 268.697 817.013 266.667 817.76C264.747 818.64 262.347 819.52 259.547 820.52C256.747 821.52 253.547 822.68 249.987 823.72C241.59 826.295 233.057 828.405 224.427 830.04C213.844 831.974 203.161 833.31 192.427 834.04C181.69 834.677 170.924 834.677 160.187 834.04C151.427 833.476 142.714 832.327 134.107 830.6C130.387 829.96 127.107 829.08 124.227 828.32C121.763 827.715 119.333 826.981 116.947 826.12C114.862 825.511 112.829 824.735 110.867 823.8C113.019 824.114 115.136 824.637 117.187 825.36C119.147 825.96 121.627 826.56 124.507 827.16C127.387 827.76 130.667 828.6 134.347 829.16C142.937 830.643 151.604 831.631 160.307 832.12C170.971 832.602 181.653 832.509 192.307 831.84C202.954 831.039 213.554 829.704 224.067 827.84C233.707 825.96 242.387 824.08 249.507 822C253.107 821.04 256.307 820 259.147 819.08C261.987 818.16 264.387 817.44 266.347 816.68C268.358 815.942 270.434 815.393 272.547 815.04Z" fill="#FF725E"/>
<path d="M284.387 775.52C282.718 776.454 280.946 777.192 279.107 777.72C275.667 779.04 270.587 780.76 264.307 782.68C247.864 787.744 231.054 791.529 214.027 794C196.987 796.489 179.76 797.467 162.547 796.92C155.947 796.64 150.547 796.24 146.947 795.8C145.03 795.691 143.127 795.397 141.267 794.92C143.183 794.747 145.111 794.747 147.027 794.92C150.667 795.12 155.987 795.28 162.587 795.36C179.675 795.505 196.749 794.368 213.667 791.96C230.606 789.449 247.372 785.882 263.867 781.28C270.187 779.52 275.307 778.04 278.827 776.96C280.637 776.325 282.497 775.843 284.387 775.52Z" fill="#FF725E"/>
<path d="M354.467 946.12C347.598 955.163 340.185 963.779 332.267 971.92C324.858 980.535 316.937 988.697 308.547 996.36C315.421 987.308 322.834 978.679 330.747 970.52C338.149 961.911 346.071 953.763 354.467 946.12Z" fill="#FF725E"/>
<path d="M387.747 965.8C387.315 967.002 386.709 968.135 385.947 969.16C384.667 971.28 382.667 974.2 380.067 977.76C366.416 996.246 348.974 1011.6 328.907 1022.8C324.907 1024.92 321.907 1026.52 319.667 1027.52C318.55 1028.14 317.351 1028.59 316.107 1028.88C316.107 1028.6 320.747 1026.08 328.107 1021.52C337.761 1015.62 346.912 1008.93 355.467 1001.52C363.925 993.985 371.739 985.757 378.827 976.92C384.387 970.04 387.467 965.52 387.747 965.8Z" fill="#FF725E"/>
<path d="M397.867 983.56C397.127 991.425 394.748 999.047 390.883 1005.94C387.018 1012.83 381.753 1018.83 375.427 1023.56C380.452 1017.69 385.025 1011.44 389.107 1004.88C392.547 997.998 395.475 990.872 397.867 983.56Z" fill="#FF725E"/>
<path d="M431.427 1020.32C430.217 1026.76 427.271 1032.75 422.907 1037.64C419.073 1042.96 413.839 1047.11 407.787 1049.64C412.571 1045.49 417.087 1041.04 421.307 1036.32C424.987 1031.19 428.366 1025.84 431.427 1020.32Z" fill="#FF725E"/>
<path d="M485.667 1053.52C485.855 1060.43 484.05 1067.25 480.467 1073.16C477.466 1079.39 472.693 1084.59 466.747 1088.12C471.22 1083.16 475.236 1077.8 478.747 1072.12C481.595 1066.13 483.91 1059.91 485.667 1053.52Z" fill="#FF725E"/>
<path d="M547.787 1083.36C549.269 1089.85 548.581 1096.65 545.827 1102.72C543.707 1109.02 539.61 1114.46 534.147 1118.24C542.49 1108.48 547.296 1096.19 547.787 1083.36Z" fill="#FF725E"/>
<path d="M605.147 1134.52C604.547 1134.32 606.947 1126.52 607.507 1116.76C608.067 1107 606.667 1098.96 607.267 1098.84C611.094 1110.57 610.337 1123.32 605.147 1134.52Z" fill="#FF725E"/>
<path d="M652.147 1137.96C651.587 1137.72 654.467 1130.76 655.227 1121.68C655.987 1112.6 654.427 1105.28 655.227 1105.16C657.206 1110.5 657.971 1116.22 657.466 1121.89C656.96 1127.56 655.198 1133.05 652.307 1137.96H652.147Z" fill="#FF725E"/>
<path d="M717.907 1137.52C717.307 1137.52 718.267 1130.68 717.187 1122.48C716.107 1114.28 713.547 1108 714.107 1107.76C717.144 1112.01 718.931 1117.03 719.267 1122.24C720.269 1127.36 719.797 1132.66 717.907 1137.52Z" fill="#FF725E"/>
<path d="M763.347 1133.52C762.707 1133.52 762.707 1127.08 760.547 1119.6C758.387 1112.12 755.147 1106.56 755.667 1106.24C758.869 1109.95 761.217 1114.31 762.544 1119.03C763.871 1123.74 764.145 1128.69 763.347 1133.52Z" fill="#FF725E"/>
<path d="M816.667 1121.8C816.027 1121.8 816.347 1115.52 813.987 1108.36C811.627 1101.2 807.827 1096.36 808.347 1095.88C811.892 1099.09 814.528 1103.17 815.989 1107.72C817.45 1112.27 817.684 1117.13 816.667 1121.8Z" fill="#FF725E"/>
<path d="M882.307 1108.44C881.667 1108.44 881.587 1101.44 878.667 1093.48C875.747 1085.52 871.347 1080.08 871.827 1079.68C875.781 1083.26 878.802 1087.75 880.628 1092.76C882.454 1097.77 883.031 1103.16 882.307 1108.44Z" fill="#FF725E"/>
<path d="M937.667 1086.84C937.067 1086.84 934.867 1079.76 930.147 1071.84C925.427 1063.92 920.187 1058.48 920.627 1058.04C929.782 1065.11 935.881 1075.41 937.667 1086.84Z" fill="#FF725E"/>
<path d="M999.547 1054.4C998.947 1054.4 997.067 1046.88 992.027 1038.8C986.987 1030.72 981.067 1025.6 981.467 1025.12C986.459 1028.36 990.669 1032.67 993.795 1037.73C996.922 1042.79 998.886 1048.49 999.547 1054.4Z" fill="#FF725E"/>
<path d="M1059.99 1011.08C1057.35 1006.42 1054.4 1001.94 1051.15 997.68C1047.41 993.85 1043.4 990.295 1039.15 987.04C1044.58 988.563 1049.37 991.822 1052.79 996.32C1056.71 1000.34 1059.23 1005.52 1059.99 1011.08Z" fill="#FF725E"/>
<path d="M1111.75 966.88C1111.23 967.24 1106.43 960.8 1099.15 954.24C1091.87 947.68 1085.07 943.4 1085.39 942.84C1091.1 944.966 1096.28 948.326 1100.55 952.68C1105.27 956.542 1109.09 961.388 1111.75 966.88Z" fill="#FF725E"/>
<path d="M1158.11 909.24C1157.59 909.56 1153.59 903.08 1146.55 897.24C1139.51 891.4 1132.51 888.44 1132.75 887.84C1138.32 889.269 1143.49 891.94 1147.88 895.653C1152.28 899.366 1155.77 904.025 1158.11 909.28V909.24Z" fill="#FF725E"/>
<path d="M1199.43 840.64C1194.76 836.906 1189.88 833.434 1184.83 830.24C1179.44 827.681 1173.91 825.424 1168.27 823.48C1174.47 823.443 1180.56 825.163 1185.83 828.44C1191.44 831.118 1196.16 835.353 1199.43 840.64Z" fill="#FF725E"/>
<path d="M1224.55 766.52C1213.74 760.257 1201.33 757.334 1188.87 758.12C1195.03 756.332 1201.56 756.166 1207.81 757.638C1214.06 759.109 1219.83 762.169 1224.55 766.52Z" fill="#FF725E"/>
<path d="M1235.71 686.92C1235.51 687.52 1228.99 685.24 1220.63 684.36C1212.27 683.48 1205.43 684.36 1205.35 683.56C1215.52 680.69 1226.41 681.895 1235.71 686.92Z" fill="#FF725E"/>
<path d="M1231.59 607.2C1227.82 607.679 1224.02 607.839 1220.23 607.68C1216.47 608.165 1212.69 608.352 1208.91 608.24C1216.07 605.081 1224.16 604.71 1231.59 607.2Z" fill="#FF725E"/>
<path d="M1215.27 552.44C1211.32 551.619 1207.3 551.257 1203.27 551.36C1199.36 552.121 1195.55 553.315 1191.91 554.92C1191.91 554.72 1192.63 553.56 1194.55 552.28C1197.1 550.631 1200 549.603 1203.03 549.28C1206.05 548.941 1209.1 549.325 1211.95 550.4C1214.27 551.24 1215.39 552.2 1215.27 552.44Z" fill="#FF725E"/>
<g opacity="0.3">
<path d="M943.987 821.52C963.387 858.36 1008.63 877.28 1049.99 872.24C1091.35 867.2 1128.19 841.48 1153.99 808.68C1172.99 784.44 1187.07 753.04 1179.23 723.28C1158.71 765.934 1122.81 799.248 1078.75 816.535C1034.69 833.822 985.716 833.802 941.667 816.48" fill="black"/>
</g>
<path d="M1186.07 504.52C1176.77 490.196 1173.37 472.838 1176.56 456.064C1179.74 439.29 1189.28 424.394 1203.19 414.48C1214.23 406.48 1227.55 402.2 1237.99 393.56C1244.37 387.961 1249.57 381.141 1253.28 373.502C1256.99 365.863 1259.13 357.56 1259.59 349.08C1260.36 332.067 1256.59 315.156 1248.67 300.08L1259.79 294.6L1260.75 295.8C1268.13 305.495 1273.27 316.707 1275.8 328.628C1278.33 340.549 1278.19 352.882 1275.38 364.741C1272.57 376.6 1267.17 387.688 1259.56 397.209C1251.96 406.729 1242.33 414.445 1231.39 419.8C1223.06 423.622 1215.23 428.444 1208.07 434.16C1194.19 446.16 1199.87 459.8 1199.87 459.8" fill="#FF725E"/>
<g opacity="0.7">
<path d="M1186.07 504.52C1176.77 490.196 1173.37 472.838 1176.56 456.064C1179.74 439.29 1189.28 424.394 1203.19 414.48C1214.23 406.48 1227.55 402.2 1237.99 393.56C1244.37 387.961 1249.57 381.141 1253.28 373.502C1256.99 365.863 1259.13 357.56 1259.59 349.08C1260.36 332.067 1256.59 315.156 1248.67 300.08L1259.79 294.6L1260.75 295.8C1268.13 305.495 1273.27 316.707 1275.8 328.628C1278.33 340.549 1278.19 352.882 1275.38 364.741C1272.57 376.6 1267.17 387.688 1259.56 397.209C1251.96 406.729 1242.33 414.445 1231.39 419.8C1223.06 423.622 1215.23 428.444 1208.07 434.16C1194.19 446.16 1199.87 459.8 1199.87 459.8" fill="white"/>
</g>
<path d="M1201.67 460.52C1197.14 459.622 1192.52 459.22 1187.91 459.32C1183.33 460.057 1178.85 461.305 1174.55 463.04C1178.18 459.734 1182.79 457.7 1187.69 457.246C1192.58 456.791 1197.49 457.94 1201.67 460.52Z" fill="#FF725E"/>
<path d="M1212.15 430C1211.59 430.2 1209.83 426.72 1206.55 423.44C1203.27 420.16 1199.83 418.32 1200.03 417.76C1200.23 417.2 1204.39 418.28 1208.03 421.96C1211.67 425.64 1212.67 429.84 1212.15 430Z" fill="#FF725E"/>
<path d="M1251.39 406.8C1250.83 407 1249.39 403.12 1246.23 399.32C1243.07 395.52 1239.67 393.28 1239.95 392.76C1240.23 392.24 1244.43 393.8 1247.95 398.04C1251.47 402.28 1251.95 406.72 1251.39 406.8Z" fill="#FF725E"/>
<path d="M1277.67 357.04C1274.61 356.827 1271.57 356.359 1268.59 355.64C1265.52 355.571 1262.47 355.236 1259.47 354.64C1262.46 353.513 1265.69 353.143 1268.87 353.562C1272.04 353.98 1275.06 355.175 1277.67 357.04Z" fill="#FF725E"/>
<path d="M1268.75 308.96C1268.75 309.56 1265.35 309.36 1261.63 310.48C1257.91 311.6 1255.15 313.4 1254.75 312.96C1254.35 312.52 1256.75 309.68 1261.03 308.48C1265.31 307.28 1268.91 308.44 1268.75 308.96Z" fill="#FF725E"/>
<path d="M898.507 605.08C912.667 595.88 931.427 598.92 947.507 604.24C963.587 609.56 979.707 616.92 996.547 615.32C1014.91 613.6 1030.63 601.36 1042.75 587.52C1057.72 570.408 1068.86 550.292 1075.43 528.52C1082.07 506.36 1085.47 480.32 1104.55 467.2C1123.63 454.08 1150.11 460.68 1166.51 476.2C1182.91 491.72 1190.83 514.12 1196.03 536.2C1208.03 587.08 1208.23 641.36 1191.75 691C1175.27 740.64 1141.39 785.12 1095.39 810C1049.39 834.88 991.387 838.44 944.587 815.16" fill="#FF725E"/>
<path d="M944.587 815.04C945.322 815.294 946.043 815.587 946.747 815.92L952.987 818.64C955.787 819.72 959.267 821 963.387 822.64C967.507 824.28 972.387 825.4 977.947 826.64C991.423 829.552 1005.21 830.774 1018.99 830.28C1027.58 829.934 1036.14 828.944 1044.59 827.32C1054.06 825.591 1063.37 823.021 1072.39 819.64C1093.17 811.875 1112.32 800.304 1128.87 785.52C1147.91 768.67 1163.75 748.52 1175.63 726.04C1188.74 701.208 1197.32 674.241 1200.99 646.4C1204.93 616.504 1204.28 586.18 1199.07 556.48C1196.66 541.411 1192.9 526.591 1187.83 512.2C1183.06 498.197 1174.9 485.595 1164.07 475.52C1153.38 466.077 1139.48 461.07 1125.23 461.52C1118.4 461.815 1111.77 463.882 1105.99 467.52C1100.4 471.205 1095.75 476.134 1092.39 481.92C1085.51 493.28 1082.55 506.24 1079.19 518.48C1076.24 530.553 1072 542.273 1066.55 553.44C1061.42 563.858 1055.15 573.678 1047.87 582.72C1041.28 591.203 1033.53 598.705 1024.83 605C1016.89 610.8 1007.64 614.551 997.907 615.92C989.209 616.713 980.44 615.775 972.107 613.16C956.547 608.56 943.827 602.64 932.587 600.84C924.076 598.951 915.233 599.17 906.827 601.48C904.672 602.155 902.583 603.025 900.587 604.08C899.227 604.84 898.507 605.16 898.507 605.16L900.467 603.92C902.432 602.765 904.509 601.814 906.667 601.08C915.136 598.558 924.103 598.2 932.747 600.04C944.107 601.76 956.987 607.6 972.427 612.04C980.615 614.554 989.221 615.424 997.747 614.6C1007.25 613.215 1016.26 609.505 1023.99 603.8C1032.55 597.556 1040.17 590.121 1046.63 581.72C1053.78 572.73 1059.93 562.994 1064.99 552.68C1070.37 541.602 1074.54 529.974 1077.43 518C1080.75 505.8 1083.67 492.68 1090.75 480.92C1094.24 474.867 1099.1 469.716 1104.95 465.88C1110.94 462.045 1117.84 459.852 1124.95 459.52C1132.2 459.182 1139.46 460.311 1146.27 462.84C1153.23 465.343 1159.67 469.113 1165.27 473.96C1176.34 484.255 1184.7 497.132 1189.59 511.44C1194.72 525.97 1198.53 540.939 1200.95 556.16C1206.23 586.056 1206.87 616.59 1202.83 646.68C1199.12 674.756 1190.42 701.944 1177.15 726.96C1165.14 749.661 1149.1 769.991 1129.83 786.96C1113.08 801.748 1093.72 813.278 1072.75 820.96C1063.65 824.308 1054.28 826.852 1044.75 828.56C1036.23 830.133 1027.6 831.069 1018.95 831.36C1005.07 831.775 991.203 830.431 977.667 827.36C972.107 826.16 967.307 824.56 963.107 823.36C958.907 822.16 955.507 820.52 952.747 819.36L946.587 816.44C945.267 815.44 944.587 815.04 944.587 815.04Z" fill="#263238"/>
<path d="M1116.75 514.12C1114.7 512.427 1113.06 510.294 1111.95 507.88C1108.93 502.168 1107.41 495.78 1107.55 489.32C1107.62 482.872 1109.32 476.546 1112.47 470.92C1113.62 468.512 1115.34 466.415 1117.47 464.8C1117.75 465.04 1115.83 467.36 1113.79 471.6C1111.14 477.152 1109.72 483.212 1109.63 489.363C1109.54 495.515 1110.78 501.613 1113.27 507.24C1115.23 511.52 1117.07 513.92 1116.75 514.12Z" fill="#263238"/>
<path d="M1141.03 510.6C1139.2 508.713 1137.76 506.484 1136.79 504.04C1134.11 498.25 1132.53 492.009 1132.15 485.64C1131.75 479.278 1132.56 472.897 1134.55 466.84C1135.19 464.288 1136.35 461.893 1137.95 459.8C1134.96 468.028 1133.69 476.782 1134.22 485.519C1134.75 494.257 1137.07 502.793 1141.03 510.6Z" fill="#263238"/>
<path d="M1160.47 517.52C1157.94 511.453 1156.9 504.871 1157.43 498.32C1157.25 491.748 1158.62 485.226 1161.43 479.28C1162.03 479.48 1159.75 487.8 1159.51 498.36C1159.27 508.92 1161.07 517.52 1160.47 517.52Z" fill="#263238"/>
<path d="M1494.43 567.52C1457.83 589.84 1409.15 585.6 1371.23 565.56C1333.31 545.52 1304.59 511.96 1280.63 476.76C1273.83 466.76 1266.95 456.16 1256.39 450.12C1235.63 438.12 1206.95 449.72 1195.03 470.12C1183.11 490.52 1185.35 516.68 1194.55 538.52C1194.55 538.52 1218.95 656.76 1346.15 730.28" fill="#FF725E"/>
<path d="M1346.15 730.4C1345.76 730.27 1345.4 730.081 1345.07 729.84L1341.95 728C1339.15 726.28 1335.19 723.8 1329.95 720.68C1327.43 719 1324.39 717.4 1321.39 715.16L1311.59 708C1308.11 705.32 1304.11 702.8 1300.35 699.48L1288.35 689.2C1268.55 671.468 1250.95 651.433 1235.91 629.52C1226.83 616.331 1218.8 602.449 1211.91 588C1204.16 572.282 1198.05 555.809 1193.67 538.84V539.04C1187.58 525.118 1185.04 509.905 1186.27 494.76C1187.04 486.851 1189.3 479.159 1192.91 472.08C1197.61 463.151 1204.82 455.795 1213.66 450.919C1222.5 446.043 1232.57 443.86 1242.63 444.64C1248.49 445.336 1254.11 447.361 1259.07 450.56C1263.81 453.795 1268.02 457.749 1271.55 462.28C1275.11 466.68 1278.23 471.32 1281.27 475.84C1284.31 480.36 1287.47 484.8 1290.59 489.12C1296.91 497.8 1303.39 506.08 1310.07 513.8C1322.6 528.565 1336.88 541.754 1352.59 553.08C1366.31 562.937 1381.53 570.514 1397.67 575.52C1420.96 583.104 1445.94 583.881 1469.67 577.76C1471.65 577.273 1473.6 576.672 1475.51 575.96C1477.31 575.32 1479.03 574.8 1480.55 574.16C1483.59 572.8 1486.23 571.76 1488.23 570.72L1492.83 568.28C1493.34 567.982 1493.87 567.728 1494.43 567.52C1493.96 567.88 1493.47 568.201 1492.95 568.48L1488.43 571.08C1486.43 572.2 1483.83 573.28 1480.79 574.72C1479.23 575.4 1477.55 575.96 1475.75 576.64C1473.83 577.399 1471.86 578.04 1469.87 578.56C1445.97 585.065 1420.69 584.495 1397.11 576.92C1380.8 571.965 1365.41 564.385 1351.55 554.48C1335.68 543.129 1321.25 529.884 1308.59 515.04C1301.83 507.28 1295.31 499.04 1288.95 490.32C1285.79 485.96 1282.67 481.48 1279.59 476.96C1276.51 472.44 1273.43 467.84 1269.95 463.56C1266.54 459.216 1262.49 455.413 1257.95 452.28C1253.26 449.258 1247.93 447.356 1242.39 446.72C1230.89 445.671 1219.4 448.842 1210.07 455.64C1203.8 460.217 1198.6 466.107 1194.85 472.898C1191.09 479.689 1188.86 487.218 1188.31 494.96C1187.12 509.759 1189.59 524.622 1195.51 538.24V538.44C1199.82 555.292 1205.85 571.658 1213.51 587.28C1220.42 601.67 1228.44 615.498 1237.51 628.64C1252.41 650.499 1269.87 670.507 1289.51 688.24L1301.51 698.6C1305.23 701.96 1309.19 704.48 1312.59 707.2L1322.31 714.48C1325.27 716.76 1328.27 718.48 1330.79 720.08L1342.51 727.68L1345.51 729.68C1345.74 729.901 1345.96 730.141 1346.15 730.4Z" fill="#263238"/>
<path d="M1228.95 517.08C1225.92 507.414 1221.66 498.178 1216.27 489.6C1206.91 475.6 1194.99 468.24 1195.47 467.68C1198.26 468.84 1200.84 470.448 1203.11 472.44C1214.67 481.571 1223.13 494.044 1227.35 508.16C1228.39 511.018 1228.93 514.037 1228.95 517.08Z" fill="#263238"/>
<path d="M1253.67 501.04C1252.09 490.89 1249.19 480.991 1245.03 471.6C1240.23 462.522 1234.27 454.105 1227.31 446.56C1229.94 448.153 1232.3 450.151 1234.31 452.48C1239.42 457.873 1243.67 464.026 1246.91 470.72C1250.12 477.406 1252.31 484.54 1253.39 491.88C1254.01 494.895 1254.1 497.993 1253.67 501.04Z" fill="#263238"/>
<g opacity="0.3">
<path d="M1170.99 735.8C1180.95 720.56 1139.91 716.96 1121.83 719.08C1095.35 722.123 1070.94 734.895 1053.35 754.919C1035.76 774.943 1026.23 800.789 1026.63 827.44C1026.63 827.44 1105.67 835.88 1170.99 735.8Z" fill="white"/>
</g>
<g opacity="0.3">
<path d="M1238.39 667.76C1259.18 699.566 1290.02 723.503 1325.99 735.76C1329.76 737.398 1333.91 737.979 1337.99 737.44C1340 737.143 1341.84 736.153 1343.2 734.642C1344.56 733.13 1345.35 731.191 1345.43 729.16C1302.67 705.898 1266.02 672.852 1238.47 632.72C1236.37 645.031 1238.13 657.689 1243.51 668.96" fill="black"/>
</g>
<path d="M1183.35 397.835C1218.58 362.61 1218.58 305.498 1183.35 270.273C1148.13 235.048 1091.02 235.048 1055.79 270.273C1020.57 305.498 1020.57 362.61 1055.79 397.835C1091.02 433.06 1148.13 433.06 1183.35 397.835Z" fill="#F5F5F5"/>
<path d="M1209.67 337.84C1209.67 381.4 1186.79 417.84 1161.31 417.84C1135.83 417.84 1115.15 382.52 1115.15 339C1115.15 295.48 1135.83 260.16 1161.31 260.16C1186.79 260.16 1209.67 294.32 1209.67 337.84Z" fill="#263238"/>
<path d="M1138.87 375.24C1138.11 374.348 1137.49 373.351 1137.03 372.28C1135.58 369.453 1134.34 366.525 1133.31 363.52C1126.34 343.444 1126.92 321.518 1134.95 301.84C1136.13 298.891 1137.55 296.042 1139.19 293.32C1139.69 292.268 1140.35 291.297 1141.15 290.44C1141.47 290.44 1139.07 294.92 1136.35 302.44C1132.84 312.152 1130.89 322.359 1130.59 332.68C1130.32 342.987 1131.67 353.271 1134.59 363.16C1137.03 370.64 1139.23 375.08 1138.87 375.24Z" fill="white"/>
<path d="M1172.83 303.88C1181.35 303.88 1188.27 296.967 1188.27 288.44C1188.27 279.913 1181.35 273 1172.83 273C1164.3 273 1157.39 279.913 1157.39 288.44C1157.39 296.967 1164.3 303.88 1172.83 303.88Z" fill="white"/>
<path d="M1177.99 222.72C1176.27 225.08 1171.91 225.04 1166.43 224.16C1160.95 223.28 1154.07 221.68 1146.63 220.48C1139.19 219.28 1132.47 218.56 1127.07 217.8C1121.67 217.04 1117.51 215.96 1116.43 213.24C1115.35 210.52 1117.95 206.64 1124.03 203.4C1127.6 201.572 1131.45 200.343 1135.43 199.76C1140.28 199.003 1145.22 199.003 1150.07 199.76C1158.81 201.087 1166.95 205.018 1173.43 211.04C1178.23 216 1179.63 220.44 1177.99 222.72Z" fill="#263238"/>
<path d="M1137.11 446.68C1130.14 432.374 1128.61 416.027 1132.79 400.676C1136.98 385.324 1146.59 372.013 1159.84 363.215C1173.1 354.416 1189.1 350.729 1204.87 352.838C1220.64 354.946 1235.11 362.708 1245.59 374.68" fill="#FF725E"/>
<path d="M1245.67 374.68C1245.67 374.68 1243.75 372.88 1240.19 369.8C1235.1 365.483 1229.38 361.975 1223.23 359.4C1214.14 355.555 1204.34 353.674 1194.47 353.88C1182.33 353.768 1170.45 357.284 1160.32 363.976C1150.2 370.668 1142.31 380.232 1137.67 391.44C1133.65 400.454 1131.58 410.212 1131.59 420.08C1131.59 426.741 1132.6 433.363 1134.59 439.72C1136.03 444.2 1137.15 446.6 1136.95 446.68C1136.57 446.173 1136.27 445.622 1136.03 445.04C1135.19 443.408 1134.45 441.725 1133.83 440C1131.47 433.591 1130.23 426.828 1130.15 420C1129.88 409.883 1131.85 399.831 1135.91 390.56C1140.6 378.986 1148.68 369.097 1159.08 362.189C1169.49 355.28 1181.74 351.673 1194.23 351.84C1204.34 351.722 1214.36 353.811 1223.59 357.96C1229.8 360.69 1235.51 364.45 1240.47 369.08C1241.83 370.323 1243.1 371.659 1244.27 373.08C1244.8 373.553 1245.27 374.09 1245.67 374.68Z" fill="#263238"/>
<path d="M957.987 105.12C957.349 105.456 956.66 105.686 955.947 105.8L949.987 107.4C947.387 108.04 944.227 108.96 940.587 110.08L934.787 111.8L928.307 114C904.795 122.217 882.238 132.945 861.027 146C839.79 159.1 819.475 173.641 800.227 189.52C792.827 195.6 786.867 200.56 782.827 204.08L778.067 208.08C776.987 209 776.387 209.44 776.307 209.36C776.742 208.787 777.238 208.264 777.787 207.8L782.267 203.52C786.267 199.84 791.987 194.72 799.267 188.44C818.334 172.237 838.621 157.527 859.947 144.44C881.277 131.2 904.104 120.539 927.947 112.68L934.467 110.56L940.387 109C944.067 107.96 947.227 107.16 949.867 106.64L955.947 105.44C956.612 105.251 957.297 105.144 957.987 105.12Z" fill="#263238"/>
<defs>
<filter id="filter0_d_614_424" x="456" y="0" width="1135.93" height="1023.13" filterUnits="userSpaceOnUse" color-interpolation-filters="sRGB">
<feFlood flood-opacity="0" result="BackgroundImageFix"/>
<feColorMatrix in="SourceAlpha" type="matrix" values="0 0 0 0 0 0 0 0 0 0 0 0 0 0 0 0 0 0 127 0" result="hardAlpha"/>
<feOffset dy="4"/>
<feGaussianBlur stdDeviation="2"/>
<feComposite in2="hardAlpha" operator="out"/>
<feColorMatrix type="matrix" values="0 0 0 0 0 0 0 0 0 0 0 0 0 0 0 0 0 0 0.25 0"/>
<feBlend mode="normal" in2="BackgroundImageFix" result="effect1_dropShadow_614_424"/>
<feBlend mode="normal" in="SourceGraphic" in2="effect1_dropShadow_614_424" result="shape"/>
</filter>
</defs>
</svg>
